Coordinates
version=1
nRows=49
nColumns=12
inDegrees=yes

Units are S.I. units (second, meters, Newtons, ...)
Angles are in degrees

endheader
time	SC_y	SC_z	SC_x	AC_y	AC_z	AC_x	GH_y	GH_z	GH_yy	EL_x	PS_y
       0.0              -46.15          5.947          74.78          52.89          7.071         -10.97         -125.9           54.4          2.767          101.5          10.54
    0.0337              -46.15          5.948          74.77          52.89          7.068         -10.97         -125.9          54.39           2.79          101.5          10.54
    0.0674              -46.14          5.949          74.76          52.89          7.064         -10.97         -125.9          54.38          2.815          101.5          10.54
    0.1011              -46.14           5.95          74.75          52.89          7.061         -10.97         -125.9          54.37          2.841          101.5          10.54
    0.1348              -46.14          5.952          74.74          52.89          7.057         -10.97         -125.9          54.36          2.869          101.5          10.54
    0.1685              -46.14          5.953          74.73          52.89          7.052         -10.98         -125.9          54.35          2.899          101.5          10.54
    0.2022              -46.14          5.955          74.71          52.89          7.048         -10.98         -125.9          54.33           2.93          101.5          10.54
    0.2359              -46.14          5.956           74.7          52.89          7.043         -10.98         -125.9          54.32          2.964          101.5          10.54
    0.2696              -46.14          5.958          74.69          52.89          7.037         -10.98         -126.0          54.31          3.001          101.5          10.54
    0.3033              -46.13           5.96          74.67          52.89          7.032         -10.98         -126.0          54.29           3.04          101.5          10.54
     0.337              -46.13          5.962          74.66          52.89          7.026         -10.98         -126.0          54.27          3.082          101.5          10.54
    0.3707              -46.13          5.964          74.64          52.89          7.019         -10.98         -126.0          54.25          3.127          101.5          10.54
    0.4044              -46.13          5.966          74.62          52.89          7.012         -10.98         -126.0          54.24          3.176          101.5          10.54
    0.4381              -46.13          5.969           74.6          52.89          7.004         -10.98         -126.0          54.21          3.228          101.5          10.54
    0.4718              -46.12          5.972          74.58          52.89          6.996         -10.98         -126.0          54.19          3.285          101.5          10.54
    0.5055              -46.12          5.975          74.55          52.89          6.987         -10.98         -126.1          54.17          3.347          101.5          10.54
    0.5392              -46.12          5.978          74.53          52.89          6.977         -10.99         -126.1          54.14          3.414          101.5          10.54
    0.5729              -46.12          5.981           74.5          52.89          6.967         -10.99         -126.1          54.11          3.487          101.5          10.55
    0.6066              -46.11          5.985          74.47          52.89          6.955         -10.99         -126.1          54.08          3.567          101.5          10.55
    0.6403              -46.11          5.989          74.43          52.89          6.942         -10.99         -126.1          54.04          3.654          101.5          10.55
     0.674               -46.1          5.994           74.4          52.89          6.929         -10.99         -126.2          54.01           3.75          101.6          10.55
    0.7077               -46.1          5.999          74.36          52.89          6.913         -10.99         -126.2          53.96          3.856          101.6          10.55
    0.7414               -46.1          6.004          74.31           52.9          6.896          -11.0         -126.2          53.92          3.972          101.6          10.55
    0.7751              -46.09          6.011          74.26           52.9          6.878          -11.0         -126.3          53.87          4.102          101.6          10.55
    0.8088              -46.08          6.018           74.2           52.9          6.857          -11.0         -126.3          53.81          4.245          101.6          10.56
    0.8425              -46.08          6.025          74.14           52.9          6.833         -11.01         -126.4          53.74          4.406          101.6          10.56
    0.8762              -46.07          6.034          74.07           52.9          6.807         -11.01         -126.4          53.67          4.585          101.6          10.56
    0.9099              -46.06          6.043          73.99           52.9          6.778         -11.01         -126.5          53.59          4.787          101.6          10.56
    0.9436              -46.05          6.054          73.91           52.9          6.745         -11.02         -126.5           53.5          5.015          101.6          10.57
    0.9773              -46.04          6.067           73.8           52.9          6.707         -11.02         -126.6           53.4          5.274          101.7          10.57
     1.011              -46.03          6.081          73.69          52.91          6.664         -11.03         -126.7          53.28           5.57          101.7          10.57
     1.045              -46.01          6.097          73.56          52.91          6.615         -11.04         -126.8          53.14           5.91          101.7          10.58
     1.078               -46.0          6.116          73.41          52.91          6.558         -11.04         -126.9          52.99          6.301          101.7          10.58
     1.112              -45.98          6.138          73.23          52.91          6.492         -11.05         -127.0           52.8          6.757          101.8          10.59
     1.146              -45.96          6.163          73.02          52.92          6.414         -11.07         -127.2          52.59           7.29          101.8           10.6
      1.18              -45.93          6.193          72.78          52.92          6.323         -11.08         -127.4          52.34          7.918          101.8          10.61
     1.213               -45.9          6.229          72.49          52.92          6.215         -11.09         -127.6          52.04          8.664          101.9          10.62
     1.247              -45.86          6.272          72.14          52.93          6.085         -11.11         -127.8          51.68          9.559          102.0          10.63
     1.281              -45.82          6.324          71.72          52.94          5.928         -11.13         -128.1          51.25          10.64          102.0          10.65
     1.314              -45.76          6.387          71.21          52.94          5.735         -11.16         -128.5          50.72          11.96          102.1          10.66
     1.348              -45.69          6.465          70.57          52.95          5.498         -11.19         -129.0          50.07           13.6          102.2          10.69
     1.382              -45.61          6.562          69.78          52.97          5.203         -11.24         -129.6          49.26          15.63          102.4          10.72
     1.415               -45.5          6.685          68.79          52.98           4.83         -11.29         -130.3          48.23          18.19          102.6          10.75
     1.449              -45.36          6.841          67.52           53.0          4.357         -11.35         -131.2          46.93          21.45          102.8           10.8
     1.483              -45.19          7.041          65.91          53.03          3.751         -11.44         -132.4          45.26          25.62          103.1          10.86
     1.517              -44.96          7.297          63.83          53.06          2.974         -11.55         -134.0          43.12          30.98          103.4          10.93
      1.55              -44.68          7.624          61.17           53.1           1.98         -11.69         -135.9          40.39          37.81          103.9          11.03
     1.584              -44.32          8.036          57.84          53.15         0.7315         -11.86         -138.4          36.95          46.41          104.5          11.15
     1.618              -43.88          8.537          53.77          53.21        -0.7904         -12.08         -141.4          32.76          56.89          105.2           11.3
